<svg xmlns="http://www.w3.org/2000/svg" xmlns:xlink="http://www.w3.org/1999/xlink" version="1.1" id="Layer_1" x="0px" y="0px" width="100%" viewBox="0 0 1200 411" enable-background="new 0 0 1200 411" xml:space="preserve">
<path fill="#007A5C" opacity="1.000000" stroke="none" d=" M201.333328,412.000000   C189.535233,400.035248 178.082214,388.059204 166.601974,376.109314   C157.406815,366.537933 148.113831,357.059357 139.009827,347.402344   C136.681976,344.933075 134.321503,343.875824 130.837784,343.910065   C111.679909,344.098419 92.519211,344.000000 73.359482,344.000000   C71.732162,344.000000 70.104843,344.000000 68.000000,344.000000   C68.000000,339.684296 68.000000,335.734436 68.000000,331.784576   C68.000000,314.290924 68.074760,296.796478 67.899620,279.304596   C67.879128,277.258453 67.027328,274.692780 65.638100,273.267334   C44.401146,251.476944 23.010605,229.836243 1.327925,208.080322   C1.000000,207.250000 1.000000,206.500000 1.000001,205.375000   C10.365222,195.801453 19.835917,186.707291 29.069780,177.378723   C41.452221,164.869278 53.704781,152.229324 65.850525,139.490387   C67.126953,138.151611 67.895653,135.774521 67.909714,133.871826   C68.056229,114.046761 68.000000,94.220192 68.000000,74.394043   C68.000000,72.763611 68.000000,71.133186 68.000000,69.000000   C74.289970,69.000000 80.234322,69.000000 86.178665,69.000000   C99.840385,69.000000 113.550972,68.307594 127.144966,69.267105   C134.943573,69.817574 139.047272,65.826385 143.406998,61.060490   C145.284988,59.007504 146.877548,56.682858 148.832489,54.712502   C160.332123,43.122063 171.955200,31.653776 183.423004,20.032145   C189.349457,14.026206 195.041367,7.788804 200.919617,1.327989   C201.444443,1.000000 201.888901,1.000000 202.666672,1.000002   C211.135788,9.302464 219.281891,17.594841 227.405029,25.909678   C240.517151,39.331207 253.542755,52.838921 266.810089,66.105019   C268.423920,67.718697 271.295258,68.850609 273.598755,68.876495   C292.916840,69.093575 312.238403,69.000000 331.558899,69.000000   C333.196472,69.000000 334.834076,69.000000 337.000000,69.000000   C337.000000,73.912460 337.000000,78.519913 337.000000,83.127365   C337.000000,99.449867 337.166992,115.775177 336.892273,132.093048   C336.815735,136.639725 338.387360,139.937103 341.414124,142.945114   C349.329224,150.811127 357.272369,158.650558 365.086975,166.615723   C377.994202,179.771606 390.809113,193.018066 404.568542,207.156967   C403.150757,208.167892 401.534882,209.003067 400.319702,210.233856   C380.232880,230.578445 360.135315,250.913605 340.250977,271.454987   C338.431854,273.334229 337.173676,276.593048 337.139587,279.230408   C336.883423,299.047272 337.000000,318.868958 337.000000,338.689117   C337.000000,340.311768 337.000000,341.934387 337.000000,344.000000   C324.478058,344.000000 312.367706,344.000000 300.257385,344.000000   C291.263336,344.000000 282.263855,343.831268 273.279205,344.121796   C271.105713,344.192108 268.430847,345.230988 266.917145,346.751129   C245.570694,368.188232 224.385193,389.785614 203.080322,411.672058   C202.555557,412.000000 202.111099,412.000000 201.333328,412.000000  M85.000000,290.551025   C85.000000,302.636841 85.000000,314.722687 85.000000,327.000000   C97.376335,327.000000 109.036423,327.247162 120.678780,326.899994   C126.880257,326.715057 131.307907,327.873047 135.962509,333.015442   C148.471466,346.835327 162.122787,359.621094 175.318207,372.819794   C177.084900,374.586884 178.876236,376.331451 180.591309,378.147644   C187.816971,385.799652 195.018051,393.474884 202.368835,401.291199   C204.291977,398.903778 205.588043,396.985229 207.183533,395.360840   C228.633163,373.523041 250.081467,351.683319 271.692200,330.005676   C273.317841,328.375061 276.139984,327.250000 278.467896,327.134094   C285.781830,326.769867 293.125427,327.000000 300.457520,327.000000   C306.888397,327.000000 313.319275,327.000000 320.000000,327.000000   C320.000000,312.364990 319.909210,298.386780 320.099274,284.412354   C320.127319,282.350525 320.932495,279.777313 322.312988,278.336487   C336.110992,263.935455 350.061310,249.679169 364.059082,235.471146   C373.614105,225.772614 383.312561,216.215408 392.772736,206.768936   C377.164276,190.656067 361.820526,174.735947 346.379486,158.910797   C338.815918,151.159058 331.159058,143.492874 323.357697,135.981888   C320.894409,133.610275 319.861511,131.228882 319.914032,127.762413   C320.122864,113.985558 320.000000,100.203667 320.000000,86.000000   C305.881134,86.000000 292.256012,86.129768 278.638123,85.874680   C276.317505,85.831207 273.464844,84.714935 271.822113,83.108414   C265.070953,76.505989 258.812317,69.403366 252.152603,62.703312   C235.516327,45.966324 218.760132,29.348534 201.721741,12.353436   C193.725922,20.806536 185.416855,29.848335 176.824539,38.612442   C164.809219,50.867981 152.582092,62.915844 140.446960,75.053940   C137.973511,77.528015 134.927765,79.663704 133.191772,82.578354   C131.293579,85.765320 128.981522,86.076042 125.843002,86.046539   C113.679459,85.932159 101.514175,85.990768 89.349594,86.012611   C87.931587,86.015160 86.513901,86.189758 85.000000,86.291016   C85.000000,99.960442 84.861580,113.124931 85.079041,126.283539   C85.150101,130.583603 83.856575,133.736023 80.813530,136.796265   C58.172684,159.565125 35.679241,182.480576 13.143413,205.353821   C12.794177,205.708282 12.494103,206.111191 12.305033,206.333786   C21.825817,216.345612 31.199818,226.449463 40.846512,236.285858   C53.330524,249.015350 65.816978,261.758392 78.752563,274.020691   C83.507744,278.528381 86.154068,283.080200 85.000000,290.551025  z"/>
<path fill="#06805F" opacity="1.000000" stroke="none" d=" M1201.000000,228.666672   C1191.671509,229.000000 1182.314819,228.557419 1173.023926,229.148529   C1166.323608,229.574844 1161.119385,227.466751 1155.953735,223.547852   C1134.823730,207.517715 1113.532593,191.699844 1092.280518,175.830856   C1091.421387,175.189285 1090.357788,174.821335 1088.992432,174.122696   C1088.992432,192.541229 1088.992432,210.466461 1088.992432,228.694763   C1077.349365,228.694763 1065.956299,228.694763 1054.280273,228.694763   C1054.280273,184.641373 1054.280273,140.594345 1054.280273,96.273376   C1065.716309,96.273376 1077.108887,96.273376 1088.784912,96.273376   C1088.784912,114.307236 1088.784912,132.243195 1088.784912,151.007431   C1097.378052,144.750885 1105.453247,138.982651 1113.409790,133.054932   C1129.457764,121.098709 1145.417480,109.023605 1161.501099,97.115822   C1162.665039,96.254082 1164.535278,96.058342 1166.080933,96.046562   C1177.407715,95.960258 1188.735352,96.000000 1200.531372,96.000000   C1201.000000,96.000000 1201.000000,96.500000 1200.665039,96.837860   C1171.511963,118.835144 1142.693848,140.494553 1113.767456,162.235352   C1137.083374,179.814667 1159.891724,197.078674 1182.786499,214.227234   C1188.718628,218.670471 1194.921509,222.752213 1201.000000,227.000015   C1201.000000,227.444443 1201.000000,227.888901 1201.000000,228.666672  z"/>
<path fill="#06805F" opacity="1.000000" stroke="none" d=" M1201.000000,269.541931   C1192.538940,270.000000 1184.077881,270.000000 1175.181519,270.000000   C1175.181519,284.623840 1175.181519,299.005249 1175.181519,313.690826   C1170.361694,313.690826 1165.971069,313.690826 1161.138672,313.690826   C1161.138672,299.334045 1161.138672,284.952301 1161.138672,270.125732   C1152.326294,270.125732 1143.932983,270.125732 1135.274536,270.125732   C1135.274536,266.292297 1135.274536,262.900940 1135.274536,259.000000   C1156.925659,259.000000 1178.494263,259.000000 1200.531372,259.000000   C1201.000000,262.361298 1201.000000,265.722565 1201.000000,269.541931  z"/>
<path fill="#06805F" opacity="1.000000" stroke="none" d=" M577.000000,133.998535   C577.000000,121.192787 577.000000,108.886848 577.000000,96.291580   C588.682434,96.291580 600.078796,96.291580 611.738770,96.291580   C611.738770,140.411087 611.738770,184.471893 611.738770,228.766541   C600.318787,228.766541 589.039856,228.766541 577.293335,228.766541   C577.293335,210.498169 577.293335,192.097961 577.293335,173.350067   C545.768188,173.350067 514.705933,173.350067 483.176147,173.350067   C483.176147,191.621185 483.176147,210.021149 483.176147,228.708527   C471.317322,228.708527 459.920929,228.708527 448.261108,228.708527   C448.261108,184.588684 448.261108,140.527878 448.261108,96.233353   C459.681427,96.233353 470.960358,96.233353 482.706879,96.233353   C482.706879,114.168777 482.706879,132.235519 482.706879,150.650055   C514.232056,150.650055 545.294312,150.650055 577.000000,150.650055   C577.000000,145.355469 577.000000,139.926910 577.000000,133.998535  z"/>
<path fill="#06805F" opacity="1.000000" stroke="none" d=" M667.277954,141.311157   C674.833618,126.150383 682.167175,111.300690 689.638062,96.173042   C701.075317,96.173042 712.861816,96.173042 724.644897,96.173042   C746.205078,140.217880 767.737000,184.205048 789.662720,228.996719   C777.853271,228.996719 766.941101,229.065811 756.033203,228.881119   C755.032227,228.864182 753.679626,227.412628 753.135559,226.309113   C750.194519,220.342911 747.456970,214.276367 744.535889,208.000778   C720.667236,208.000778 696.688965,207.956894 672.712097,208.116959   C671.366821,208.125931 670.023254,209.802017 668.701782,210.734558   C668.442810,210.917313 668.241882,211.225601 668.094360,211.516617   C665.169128,217.287537 663.643677,225.311768 658.950867,228.210098   C654.228455,231.126678 646.358398,228.961563 639.867554,228.995087   C635.044373,229.020004 630.220947,229.000000 624.693604,229.000000   C638.960815,199.572021 653.008423,170.597137 667.277954,141.311157  M692.502625,161.998062   C688.619751,169.791733 684.736877,177.585388 680.697083,185.694000   C698.457275,185.694000 715.616028,185.694000 733.320740,185.694000   C724.564819,167.733597 716.035767,150.238434 706.983398,131.669952   C701.909668,142.404816 697.427063,151.889038 692.502625,161.998062  z"/>
<path fill="#06805F" opacity="1.000000" stroke="none" d=" M970.256897,142.245041   C981.522644,128.982193 992.499146,115.942993 1003.563354,102.978638   C1007.262451,98.644279 1010.809387,94.928566 1017.832520,95.754730   C1026.537842,96.778778 1035.455078,96.000000 1044.919067,96.000000   C1040.280640,101.537735 1035.942383,106.722580 1031.598267,111.902512   C1021.285767,124.199150 1010.997864,136.516571 1000.646057,148.779984   C994.614502,155.925385 988.359924,162.886627 982.477234,170.150589   C981.089905,171.863647 980.134338,174.454224 980.106262,176.655472   C979.906921,192.312805 980.000000,207.973892 980.000000,223.633774   C980.000000,225.261215 980.000000,226.888641 980.000000,228.755493   C968.223633,228.755493 956.830627,228.755493 945.000000,228.755493   C945.000000,214.787003 944.065308,200.922165 945.286682,187.249924   C946.320679,175.675049 941.543579,167.747223 934.438660,159.765839   C923.441223,147.411713 913.076416,134.496124 902.355286,121.893539   C895.258179,113.550941 888.006958,105.339424 879.896179,96.000000   C883.797791,96.000000 886.507751,96.000000 889.217712,96.000000   C895.215088,96.000000 901.238098,96.342514 907.202271,95.897522   C912.492737,95.502792 916.297546,96.855896 919.791687,101.128647   C930.789673,114.577164 942.173828,127.710602 953.458740,140.923172   C956.343384,144.300705 959.413574,147.519867 962.624084,151.060516   C965.111267,148.173889 967.556580,145.335907 970.256897,142.245041  z"/>
<path fill="#06805F" opacity="1.000000" stroke="none" d=" M879.000000,207.000000   C896.805786,207.000000 914.111572,207.000000 931.707886,207.000000   C931.707886,214.346695 931.707886,221.410675 931.707886,228.738724   C888.588501,228.738724 845.527100,228.738724 802.232666,228.738724   C802.232666,184.649719 802.232666,140.705948 802.232666,96.380951   C813.497498,96.380951 824.896851,96.380951 836.764771,96.380951   C836.764771,132.897369 836.764771,169.628235 836.764771,207.000000   C850.980286,207.000000 864.740112,207.000000 879.000000,207.000000  z"/>
<path fill="#06805F" opacity="1.000000" stroke="none" d=" M589.751465,300.748596   C599.581543,289.949921 609.161926,279.401337 617.566467,270.147430   C609.540649,270.147430 598.527832,270.147430 587.262085,270.147430   C587.262085,266.262329 587.262085,262.867767 587.262085,259.234497   C606.135498,259.234497 624.873840,259.234497 643.506042,259.234497   C645.591736,264.449921 642.359924,267.347290 639.189514,270.332336   C632.436707,276.690308 625.749084,283.117523 619.004578,289.484314   C614.473450,293.761719 609.890442,297.984222 604.627930,302.885742   C618.153625,302.885742 630.833008,302.885742 643.752441,302.885742   C643.752441,306.767700 643.752441,310.162079 643.752441,313.779388   C619.637634,313.779388 595.700317,313.779388 571.446411,313.779388   C570.909363,312.707397 570.145142,311.476318 569.650269,310.145111   C566.947388,302.875275 561.753906,301.049408 554.325012,301.837982   C547.241638,302.589874 540.013977,302.092285 532.853638,301.948090   C530.464966,301.899994 528.947571,302.347137 527.966919,304.804199   C526.953491,307.343384 525.545471,309.803772 523.883606,311.971680   C523.071716,313.030762 521.304626,313.876953 519.946716,313.911560   C512.621704,314.098022 505.198181,314.682739 497.996887,313.720856   C494.216095,313.215820 490.658722,310.061005 487.282684,307.699249   C479.448669,302.218903 471.786163,296.493347 463.242798,290.276825   C463.242798,298.564545 463.242798,306.047974 463.242798,313.757385   C458.219574,313.757385 453.824707,313.757385 449.214294,313.757385   C449.214294,295.619690 449.214294,277.679962 449.214294,259.369751   C453.517914,259.369751 457.916412,259.369751 462.742767,259.369751   C462.742767,265.901825 462.742767,272.640045 462.742767,280.499725   C469.794495,275.704193 476.038818,271.450867 482.290863,267.208832   C485.378754,265.113678 488.355438,262.807587 491.622284,261.040283   C493.668030,259.933563 496.135101,259.223846 498.457031,259.088409   C503.411835,258.799408 508.395142,259.000000 514.925781,259.000000   C501.631073,267.889404 489.491821,276.006256 476.539154,284.666962   C488.189972,292.882538 499.504608,300.861053 511.366119,309.225189   C515.735962,301.834808 520.155518,294.399292 524.536133,286.940948   C529.211914,278.980194 533.867615,271.007629 538.496399,263.019562   C540.059570,260.321991 541.964966,259.199585 545.411133,258.775055   C552.845032,257.859253 556.006897,261.637909 559.267273,267.419800   C566.819824,280.813171 575.090271,293.801697 583.565613,307.771851   C585.790771,305.233002 587.646301,303.115845 589.751465,300.748596  M550.385132,291.000000   C552.826477,291.000000 555.267761,291.000000 558.635620,291.000000   C554.566589,283.818695 550.901794,277.350769 546.944092,270.365967   C543.087158,277.421570 539.564880,283.864960 535.664490,291.000000   C540.621704,291.000000 545.023315,291.000000 550.385132,291.000000  z"/>
<path fill="#06805F" opacity="1.000000" stroke="none" d=" M1057.318726,310.190094   C1053.948730,311.641113 1050.892822,313.769501 1047.790405,313.839783   C1032.318359,314.190277 1016.833862,313.949829 1001.354248,314.021484   C993.780579,314.056519 989.315063,310.460632 989.073608,302.138062   C988.769653,291.660461 988.832092,281.163727 989.056396,270.682098   C989.223328,262.878754 993.454529,259.218323 1002.806580,259.063660   C1017.283875,258.824219 1031.772339,258.784729 1046.247803,259.073242   C1056.672607,259.281006 1059.998535,263.149414 1059.999756,273.731964   C1060.000854,283.053223 1060.178345,292.380035 1059.890381,301.692383   C1059.804932,304.455292 1058.407593,307.177612 1057.318726,310.190094  M1003.000000,280.524536   C1003.000000,287.938812 1003.000000,295.353119 1003.000000,302.690552   C1017.668579,302.690552 1031.709839,302.690552 1045.685669,302.690552   C1045.685669,291.664642 1045.685669,280.950958 1045.685669,270.311096   C1031.328125,270.311096 1017.286804,270.311096 1003.000000,270.311096   C1003.000000,273.591949 1003.000000,276.563965 1003.000000,280.524536  z"/>
<path fill="#06805F" opacity="1.000000" stroke="none" d=" M1068.000000,271.014771   C1068.000000,266.876251 1068.000000,263.234467 1068.000000,259.000000   C1072.861694,259.000000 1077.465088,259.000000 1082.068481,259.000000   C1093.400879,259.000000 1104.734741,258.892303 1116.065430,259.031860   C1126.307373,259.158020 1130.475586,262.746582 1130.014038,273.045685   C1129.917114,275.207825 1130.000122,277.378021 1130.000122,279.544525   C1129.999878,289.965393 1126.996460,293.208221 1116.563843,293.985504   C1115.241455,294.084015 1113.905396,293.998993 1111.345459,293.998993   C1119.895020,300.889252 1127.652466,307.141113 1136.143433,313.984131   C1129.397949,313.984131 1123.354248,314.130859 1117.327515,313.877045   C1115.890015,313.816498 1114.298218,312.650787 1113.137695,311.596741   C1107.751465,306.704559 1102.229858,301.917023 1097.283447,296.601807   C1094.197632,293.286041 1090.747559,293.527679 1087.307861,294.373291   C1083.518921,295.304688 1082.166138,298.652771 1082.031372,302.320862   C1081.897095,305.973572 1082.001831,309.635071 1082.001831,313.645966   C1077.453247,313.645966 1073.053589,313.645966 1068.000000,313.645966   C1068.000000,299.696960 1068.000000,285.604248 1068.000000,271.014771  M1113.125610,269.632233   C1102.879395,269.632233 1092.633301,269.632233 1082.262329,269.632233   C1082.262329,273.879303 1082.262329,278.268982 1082.262329,282.999969   C1092.316162,282.999969 1102.112305,282.917145 1111.905273,283.055695   C1114.493530,283.092285 1117.167725,282.660767 1116.769897,279.895447   C1116.289673,276.557312 1120.093750,271.648956 1113.125610,269.632233  z"/>
<path fill="#06805F" opacity="1.000000" stroke="none" d=" M909.999390,306.128174   C910.000000,308.899536 910.000000,311.195221 910.000000,313.743164   C890.271423,313.743164 870.891113,313.743164 851.254944,313.743164   C851.254944,295.591766 851.254944,277.545532 851.254944,259.249237   C870.752625,259.249237 890.131592,259.249237 909.755615,259.249237   C909.755615,262.771881 909.755615,266.164215 909.755615,270.003296   C894.856445,270.003296 880.132751,270.003296 865.207886,270.003296   C865.207886,273.386383 865.207886,276.335114 865.207886,279.737305   C873.510986,279.737305 881.912842,279.737305 890.654663,279.737305   C890.654663,283.567261 890.654663,286.960846 890.654663,290.819153   C882.394897,290.819153 873.994080,290.819153 865.300903,290.819153   C865.300903,294.989075 865.300903,298.716431 865.300903,303.000061   C878.897705,303.000061 892.486816,302.985931 906.075745,303.016907   C907.895996,303.021057 910.419434,302.212128 909.999390,306.128174  z"/>
<path fill="#06805F" opacity="1.000000" stroke="none" d=" M735.006531,314.000000   C730.200684,314.000000 725.893188,314.000000 721.294312,314.000000   C721.294312,295.655426 721.294312,277.592865 721.294312,259.264404   C740.739624,259.264404 760.136047,259.264404 779.766663,259.264404   C779.766663,262.671509 779.766663,265.953308 779.766663,269.706726   C765.174744,269.706726 750.439880,269.706726 735.354187,269.706726   C735.354187,273.220886 735.354187,276.284210 735.354187,279.824402   C743.602417,279.824402 752.011353,279.824402 760.706177,279.824402   C760.706177,283.673706 760.706177,287.070099 760.706177,290.938354   C752.269653,290.938354 743.862793,290.938354 735.233398,290.938354   C735.233398,295.006409 735.233398,298.621887 735.233398,302.707916   C749.827393,302.707916 764.562561,302.707916 779.647217,302.707916   C779.647217,306.558472 779.647217,309.955780 779.647217,314.000000   C765.028137,314.000000 750.266541,314.000000 735.006531,314.000000  z"/>
<path fill="#06805F" opacity="1.000000" stroke="none" d=" M932.010010,301.660370   C932.001892,305.887817 932.001892,309.681366 932.001892,313.735321   C927.275513,313.735321 922.883545,313.735321 918.244019,313.735321   C918.244019,295.579468 918.244019,277.540375 918.244019,259.000000   C932.285461,259.000000 946.204590,258.944061 960.122742,259.037048   C963.872925,259.062103 967.717102,259.100281 971.348206,259.901917   C978.590393,261.500793 980.519348,263.709259 980.896240,271.077362   C981.119995,275.451813 980.429993,279.885559 980.000305,284.277924   C979.391724,290.499054 976.644531,292.454193 969.382629,292.888519   C961.260681,293.374207 953.072388,293.304321 944.941040,292.904327   C938.359009,292.580566 934.394653,295.454346 932.010010,301.660370  M932.001282,280.316254   C932.631226,281.207642 933.260254,282.874420 933.891235,282.875153   C944.871887,282.887756 955.852722,282.695923 966.833740,282.548645   C966.833740,277.686981 966.833740,274.068176 966.833740,269.726349   C955.251953,269.726349 943.819214,269.726349 932.000000,269.726349   C932.000000,272.780701 932.000000,276.067352 932.001282,280.316254  z"/>
<path fill="#06805F" opacity="1.000000" stroke="none" d=" M704.983582,270.000000   C699.850403,270.000000 695.213989,270.000000 690.124695,270.000000   C690.124695,284.675751 690.124695,299.069885 690.124695,313.728943   C684.946350,313.728943 680.218994,313.728943 675.032532,313.728943   C675.032532,299.231079 675.032532,284.836548 675.032532,270.162903   C666.643005,270.162903 658.699707,270.162903 650.379272,270.162903   C650.379272,266.494354 650.379272,263.097931 650.379272,259.347504   C671.877075,259.347504 693.598389,259.347504 715.660583,259.347504   C715.660583,262.582672 715.660583,265.978027 715.660583,270.000000   C712.349365,270.000000 708.914856,270.000000 704.983582,270.000000  z"/>
<path fill="#06805F" opacity="1.000000" stroke="none" d=" M842.722046,313.948181   C823.991821,313.989471 805.738037,313.989471 787.243408,313.989471   C787.243408,295.579071 787.243408,277.543488 787.243408,259.253601   C791.751465,259.253601 796.141296,259.253601 800.967712,259.253601   C800.967712,273.776428 800.967712,288.155609 800.967712,302.963379   C815.441040,302.963379 829.487793,302.963379 844.333801,302.963379   C843.922058,306.932190 843.560242,310.419556 842.722046,313.948181  z"/>
<path fill="#F9B101" opacity="1.000000" stroke="none" d=" M85.000000,290.062622   C86.154068,283.080200 83.507744,278.528381 78.752563,274.020691   C65.816978,261.758392 53.330524,249.015350 40.846512,236.285858   C31.199818,226.449463 21.825817,216.345612 12.305033,206.333786   C12.494103,206.111191 12.794177,205.708282 13.143413,205.353821   C35.679241,182.480576 58.172684,159.565125 80.813530,136.796265   C83.856575,133.736023 85.150101,130.583603 85.079041,126.283539   C84.861580,113.124931 85.000000,99.960442 85.000000,86.291016   C86.513901,86.189758 87.931587,86.015160 89.349594,86.012611   C101.514175,85.990768 113.679459,85.932159 125.843002,86.046539   C128.981522,86.076042 131.293579,85.765320 133.191772,82.578354   C134.927765,79.663704 137.973511,77.528015 140.446960,75.053940   C152.582092,62.915844 164.809219,50.867981 176.824539,38.612442   C185.416855,29.848335 193.725922,20.806536 201.721741,12.353436   C218.760132,29.348534 235.516327,45.966324 252.152603,62.703312   C258.812317,69.403366 265.070953,76.505989 271.822113,83.108414   C273.464844,84.714935 276.317505,85.831207 278.638123,85.874680   C292.256012,86.129768 305.881134,86.000000 320.000000,86.000000   C320.000000,100.203667 320.122864,113.985558 319.914032,127.762413   C319.861511,131.228882 320.894409,133.610275 323.357697,135.981888   C331.159058,143.492874 338.815918,151.159058 346.379486,158.910797   C361.820526,174.735947 377.164276,190.656067 392.772736,206.768936   C383.312561,216.215408 373.614105,225.772614 364.059082,235.471146   C350.061310,249.679169 336.110992,263.935455 322.312988,278.336487   C320.932495,279.777313 320.127319,282.350525 320.099274,284.412354   C319.909210,298.386780 320.000000,312.364990 320.000000,327.000000   C313.319275,327.000000 306.888397,327.000000 300.457520,327.000000   C293.125427,327.000000 285.781830,326.769867 278.467896,327.134094   C276.139984,327.250000 273.317841,328.375061 271.692200,330.005676   C250.081467,351.683319 228.633163,373.523041 207.183533,395.360840   C205.588043,396.985229 204.291977,398.903778 202.368835,401.291199   C195.018051,393.474884 187.816971,385.799652 180.591309,378.147644   C178.876236,376.331451 177.084900,374.586884 175.318207,372.819794   C162.122787,359.621094 148.471466,346.835327 135.962509,333.015442   C131.307907,327.873047 126.880257,326.715057 120.678780,326.899994   C109.036423,327.247162 97.376335,327.000000 85.000000,327.000000   C85.000000,314.722687 85.000000,302.636841 85.000000,290.062622  M223.000076,58.500038   C216.116714,51.550110 209.233368,44.600182 202.234344,37.533455   C201.035156,39.053181 200.335083,40.132645 199.451569,41.031872   C179.165314,61.678898 158.892883,82.339935 138.476669,102.857857   C137.184494,104.156479 134.754898,104.869156 132.835831,104.906853   C122.718277,105.105591 112.594742,104.999992 101.999992,104.999992   C101.999992,115.896416 102.125076,126.350433 101.892769,136.796494   C101.847176,138.846588 100.949715,141.381042 99.549568,142.821793   C80.305855,162.623581 60.916771,182.284286 41.519581,201.936401   C40.039593,203.435822 38.229279,204.609192 36.668221,205.857574   C48.431736,218.076126 59.441315,229.613174 70.569916,241.034256   C77.780083,248.433945 84.724358,256.186035 92.596687,262.820343   C100.143082,269.180023 103.222687,276.331329 102.153534,286.109497   C101.369949,293.276031 102.000000,300.597107 102.000000,308.000061   C112.913651,308.000061 123.072403,307.947815 133.229446,308.056274   C134.755814,308.072571 136.708389,308.380096 137.723572,309.337677   C143.053574,314.365082 148.196106,319.595520 153.310715,324.846100   C169.626434,341.595612 185.901016,358.385162 202.513870,375.491180   C213.540802,363.946808 224.003983,352.809296 234.674728,341.874329   C244.683426,331.617828 254.980896,321.643158 264.992523,311.389435   C267.368530,308.955963 269.710205,307.815735 273.198395,307.911316   C282.642914,308.170105 292.099213,308.000000 302.000000,308.000000   C302.000000,297.409973 301.894562,287.286530 302.093018,277.169067   C302.130646,275.249634 302.859131,272.863098 304.138977,271.523132   C316.764648,258.304535 329.530823,245.218903 342.346741,232.183670   C350.810699,223.574844 359.420929,215.109802 367.886230,206.659683   C346.712250,185.051758 325.821045,163.831390 305.121460,142.425705   C303.415253,140.661316 302.221527,137.665604 302.138428,135.196594   C301.804047,125.264923 302.000000,115.315399 302.000000,104.999992   C291.825317,104.999992 282.189117,105.179649 272.568634,104.870163   C270.244263,104.795395 267.388428,103.686684 265.767090,102.064095   C251.550613,87.836845 237.558670,73.385246 223.000076,58.500038  z"/>
<path fill="#007A5C" opacity="1.000000" stroke="none" d=" M223.250122,58.750092   C237.558670,73.385246 251.550613,87.836845 265.767090,102.064095   C267.388428,103.686684 270.244263,104.795395 272.568634,104.870163   C282.189117,105.179649 291.825317,104.999992 302.000000,104.999992   C302.000000,115.315399 301.804047,125.264923 302.138428,135.196594   C302.221527,137.665604 303.415253,140.661316 305.121460,142.425705   C325.821045,163.831390 346.712250,185.051758 367.886230,206.659683   C359.420929,215.109802 350.810699,223.574844 342.346741,232.183670   C329.530823,245.218903 316.764648,258.304535 304.138977,271.523132   C302.859131,272.863098 302.130646,275.249634 302.093018,277.169067   C301.894562,287.286530 302.000000,297.409973 302.000000,308.000000   C292.099213,308.000000 282.642914,308.170105 273.198395,307.911316   C269.710205,307.815735 267.368530,308.955963 264.992523,311.389435   C254.980896,321.643158 244.683426,331.617828 234.674728,341.874329   C224.003983,352.809296 213.540802,363.946808 202.513870,375.491180   C185.901016,358.385162 169.626434,341.595612 153.310715,324.846100   C148.196106,319.595520 143.053574,314.365082 137.723572,309.337677   C136.708389,308.380096 134.755814,308.072571 133.229446,308.056274   C123.072403,307.947815 112.913651,308.000061 102.000000,308.000061   C102.000000,300.597107 101.369949,293.276031 102.153534,286.109497   C103.222687,276.331329 100.143082,269.180023 92.596687,262.820343   C84.724358,256.186035 77.780083,248.433945 70.569916,241.034256   C59.441315,229.613174 48.431736,218.076126 36.668221,205.857574   C38.229279,204.609192 40.039593,203.435822 41.519581,201.936401   C60.916771,182.284286 80.305855,162.623581 99.549568,142.821793   C100.949715,141.381042 101.847176,138.846588 101.892769,136.796494   C102.125076,126.350433 101.999992,115.896416 101.999992,104.999992   C112.594742,104.999992 122.718277,105.105591 132.835831,104.906853   C134.754898,104.869156 137.184494,104.156479 138.476669,102.857857   C158.892883,82.339935 179.165314,61.678898 199.451569,41.031872   C200.335083,40.132645 201.035156,39.053181 202.234344,37.533455   C209.233368,44.600182 216.116714,51.550110 223.250122,58.750092  M177.611862,285.118652   C174.606247,280.280945 168.921646,278.364807 164.766006,280.788574   C159.438751,283.895691 157.930923,289.428314 160.957321,294.763489   C163.738937,299.667145 167.838089,301.107727 172.909195,298.963776   C177.578796,296.989532 179.597580,291.728577 177.611862,285.118652  M178.103806,263.485962   C177.429047,258.785461 173.705414,256.483429 169.969055,256.364990   C167.092896,256.273834 163.536148,258.422760 161.346359,260.631042   C158.412903,263.589203 158.349899,267.572479 160.826553,271.337982   C163.374023,275.211151 168.125793,277.207001 172.173615,275.888885   C176.479904,274.486603 179.047714,269.780029 178.103806,263.485962  M293.524780,147.973969   C293.644501,142.283768 290.232910,137.507568 285.770599,136.993927   C278.535675,136.161163 275.279358,140.450958 274.098846,145.469620   C273.015961,150.073135 277.560577,155.769226 282.679474,156.880661   C286.698242,157.753235 291.587738,153.875153 293.524780,147.973969  M144.579254,299.988739   C146.679642,299.185272 149.627747,298.974121 150.693985,297.448090   C152.583740,294.743439 154.437714,291.183746 154.279877,288.085052   C154.074799,284.058716 151.263275,280.659607 146.639008,280.032288   C142.229996,279.434235 138.665115,280.831665 136.487061,284.987701   C133.095139,291.459930 135.623383,296.657227 144.579254,299.988739  M286.456573,113.886192   C282.187439,112.577011 277.422882,114.466644 275.281433,118.318253   C273.232025,122.004288 274.081940,127.837776 277.060059,130.526230   C280.417084,133.556732 285.598694,133.835388 289.155609,131.452164   C295.774994,127.016983 294.981415,117.297554 286.456573,113.886192  M150.932465,258.452911   C150.210739,258.080750 149.456421,257.760071 148.772736,257.327759   C145.167633,255.048233 141.888260,256.038940 138.992371,258.554688   C135.861511,261.274597 133.929688,264.702698 135.513885,268.946533   C136.998596,272.923828 139.445786,275.770172 144.304413,276.094757   C148.716583,276.389465 151.460968,274.261139 153.444412,270.949585   C156.068100,266.569092 154.497818,262.597198 150.932465,258.452911  M226.035858,172.897232   C226.875320,174.286179 227.531815,175.836060 228.586716,177.035538   C232.623383,181.625427 238.416611,181.341721 243.020279,176.455643   C246.292023,172.983200 245.725342,166.153961 241.898560,162.994904   C238.809479,160.444824 235.394684,159.142670 231.615326,161.210846   C227.396866,163.519318 225.101288,167.020706 226.035858,172.897232  M128.018906,272.469543   C131.368774,268.172058 130.925781,261.619110 127.081345,258.600769   C122.239861,254.799652 117.529488,255.343552 113.303543,260.191681   C109.911766,264.082886 110.211617,269.977478 113.977646,273.443390   C117.999802,277.145020 123.406601,276.975006 128.018906,272.469543  M113.412987,248.932968   C116.819832,252.900650 120.720490,253.908356 125.436333,251.175400   C129.166336,249.013779 130.445679,245.754333 130.275055,241.662262   C130.098892,237.436874 127.641998,234.373154 124.052864,233.280731   C120.520638,232.205658 116.414589,232.384506 113.658775,235.882874   C110.549889,239.829514 109.598709,243.978973 113.412987,248.932968  M152.581314,224.939224   C155.591599,219.816620 154.760330,213.779602 150.248749,210.875122   C145.916458,208.086029 141.479233,208.187851 137.001801,213.544632   C133.922043,217.229233 134.438644,223.333420 138.012314,226.479248   C142.225876,230.188324 147.343887,229.819336 152.581314,224.939224  M111.850952,215.599747   C109.866882,222.201584 113.600716,228.622025 119.643341,228.998993   C125.171822,229.343887 128.758820,226.414230 130.317230,220.281143   C131.353806,216.201736 128.419159,211.817261 123.232101,209.695648   C119.161850,208.030869 115.191818,209.849152 111.850952,215.599747  M252.429276,164.054504   C247.914505,169.043381 249.782684,174.563873 253.879211,178.277420   C257.054657,181.156006 263.999695,180.519272 266.888153,177.384552   C270.157135,173.836853 270.086334,166.611816 266.749817,163.264877   C263.131378,159.635147 257.101532,159.743347 252.429276,164.054504  M125.216225,280.779388   C121.448555,279.169525 117.936951,279.630341 114.673805,282.086121   C110.953247,284.886139 109.798378,290.522888 112.150238,294.394623   C115.068596,299.198975 120.166534,300.972717 124.629570,298.736633   C131.860962,295.113586 132.355560,287.901062 125.216225,280.779388  M268.594543,190.098007   C265.451904,184.788437 260.617310,182.466187 256.392151,184.236740   C251.884735,186.125580 248.825836,192.552826 250.381012,196.867126   C252.018524,201.409836 257.651611,205.116119 261.379150,203.783112   C266.870636,201.819321 270.765778,198.145264 268.594543,190.098007  M240.835968,185.355133   C236.853073,183.117233 232.974869,183.332581 229.486115,186.246811   C225.619919,189.476303 224.898041,195.048843 227.294739,198.967224   C229.871918,203.180725 235.768066,205.141541 239.840347,202.749069   C246.109543,199.065887 246.987732,191.834579 240.835968,185.355133  M261.863007,113.373138   C256.599121,113.024559 252.320816,115.485336 250.540909,119.977547   C248.877747,124.175018 250.221848,127.830788 253.336716,130.598328   C256.451538,133.365799 260.479919,134.413696 264.172455,132.088699   C267.291870,130.124588 269.886871,127.279190 269.410583,122.930206   C268.922974,118.478233 267.130615,115.093765 261.863007,113.373138  M240.827179,131.652985   C241.763580,130.715820 242.993744,129.933395 243.583527,128.813660   C245.697372,124.800301 246.368225,120.272400 242.832733,117.122742   C240.566483,115.103836 236.553467,113.489456 233.718613,113.979515   C227.229965,115.101219 224.268829,121.074928 226.290283,126.756798   C228.209015,132.149979 233.900482,134.302887 240.827179,131.652985  M264.828796,138.290482   C260.834259,135.805832 257.049164,136.607895 253.525238,139.212036   C249.967102,141.841461 248.895584,147.335419 251.024796,151.108215   C253.581253,155.638062 257.911926,157.503708 262.394836,156.006302   C270.397705,153.333145 271.790375,145.271408 264.828796,138.290482  M231.122208,155.601685   C235.429871,157.678528 239.486267,156.867767 242.610672,153.603027   C245.490677,150.593674 245.986435,146.689438 244.239120,142.731903   C242.352982,138.459930 239.037048,136.614380 234.407959,136.996948   C230.107620,137.352341 227.302032,139.990952 226.269012,143.745544   C225.039368,148.214813 225.953552,152.495316 231.122208,155.601685  M274.889404,167.515045   C272.550903,171.896713 274.916138,175.234283 277.833038,177.859879   C280.944855,180.660904 284.881470,181.255981 288.654114,178.808029   C292.093414,176.576324 294.234436,173.447815 293.558777,169.140991   C292.749664,163.983429 289.272278,160.550781 284.444611,160.402664   C280.614288,160.285141 276.373230,161.987808 274.889404,167.515045  M276.495667,187.979431   C272.888855,191.463684 273.371704,195.486038 275.787415,199.088760   C278.022278,202.421814 281.291687,204.607315 285.797424,203.660934   C290.940399,202.580719 293.070923,198.506927 293.729980,194.227570   C294.368652,190.080612 291.500824,186.866852 287.763519,184.961182   C283.593994,182.835114 279.996643,184.024857 276.495667,187.979431  M177.951416,214.914444   C177.223557,214.035095 176.562393,213.088608 175.756516,212.287781   C171.839569,208.395538 167.034927,208.000000 163.197266,211.316513   C158.672363,215.226929 158.029297,219.137924 160.467773,223.841965   C162.884949,228.504883 168.410828,230.219101 172.636169,228.104462   C177.709198,225.565628 179.797409,220.745865 177.951416,214.914444  M154.922150,243.292068   C154.553513,241.719559 154.415955,240.044693 153.773163,238.593628   C151.796799,234.132217 145.581573,231.511230 141.427109,233.218857   C136.718750,235.154144 134.608139,240.641602 135.810287,245.674164   C137.017532,250.728149 141.090195,251.823578 144.878738,252.743546   C148.503204,253.623672 152.863968,249.157013 154.922150,243.292068  M177.603348,246.893250   C180.016327,241.299469 178.136276,235.952286 172.864166,233.414291   C169.143616,231.623230 162.909622,233.694885 160.930237,237.380142   C158.225861,242.415237 159.580841,248.508270 163.955719,250.985046   C169.076294,253.883987 173.755310,252.638687 177.603348,246.893250  z"/>
<path fill="#F9B101" opacity="1.000000" stroke="none" d=" M177.777298,285.482483   C179.597580,291.728577 177.578796,296.989532 172.909195,298.963776   C167.838089,301.107727 163.738937,299.667145 160.957321,294.763489   C157.930923,289.428314 159.438751,283.895691 164.766006,280.788574   C168.921646,278.364807 174.606247,280.280945 177.777298,285.482483  z"/>
<path fill="#F9B101" opacity="1.000000" stroke="none" d=" M178.352631,263.796570   C179.047714,269.780029 176.479904,274.486603 172.173615,275.888885   C168.125793,277.207001 163.374023,275.211151 160.826553,271.337982   C158.349899,267.572479 158.412903,263.589203 161.346359,260.631042   C163.536148,258.422760 167.092896,256.273834 169.969055,256.364990   C173.705414,256.483429 177.429047,258.785461 178.352631,263.796570  z"/>
<path fill="#F9B101" opacity="1.000000" stroke="none" d=" M293.305939,148.299942   C291.587738,153.875153 286.698242,157.753235 282.679474,156.880661   C277.560577,155.769226 273.015961,150.073135 274.098846,145.469620   C275.279358,140.450958 278.535675,136.161163 285.770599,136.993927   C290.232910,137.507568 293.644501,142.283768 293.305939,148.299942  z"/>
<path fill="#F9B101" opacity="1.000000" stroke="none" d=" M144.184814,299.960876   C135.623383,296.657227 133.095139,291.459930 136.487061,284.987701   C138.665115,280.831665 142.229996,279.434235 146.639008,280.032288   C151.263275,280.659607 154.074799,284.058716 154.279877,288.085052   C154.437714,291.183746 152.583740,294.743439 150.693985,297.448090   C149.627747,298.974121 146.679642,299.185272 144.184814,299.960876  z"/>
<path fill="#F9B101" opacity="1.000000" stroke="none" d=" M286.836700,113.964874   C294.981415,117.297554 295.774994,127.016983 289.155609,131.452164   C285.598694,133.835388 280.417084,133.556732 277.060059,130.526230   C274.081940,127.837776 273.232025,122.004288 275.281433,118.318253   C277.422882,114.466644 282.187439,112.577011 286.836700,113.964874  z"/>
<path fill="#F9B101" opacity="1.000000" stroke="none" d=" M151.208679,258.723877   C154.497818,262.597198 156.068100,266.569092 153.444412,270.949585   C151.460968,274.261139 148.716583,276.389465 144.304413,276.094757   C139.445786,275.770172 136.998596,272.923828 135.513885,268.946533   C133.929688,264.702698 135.861511,261.274597 138.992371,258.554688   C141.888260,256.038940 145.167633,255.048233 148.772736,257.327759   C149.456421,257.760071 150.210739,258.080750 151.208679,258.723877  z"/>
<path fill="#F9B101" opacity="1.000000" stroke="none" d=" M226.020462,172.485092   C225.101288,167.020706 227.396866,163.519318 231.615326,161.210846   C235.394684,159.142670 238.809479,160.444824 241.898560,162.994904   C245.725342,166.153961 246.292023,172.983200 243.020279,176.455643   C238.416611,181.341721 232.623383,181.625427 228.586716,177.035538   C227.531815,175.836060 226.875320,174.286179 226.020462,172.485092  z"/>
<path fill="#F9B101" opacity="1.000000" stroke="none" d=" M127.747742,272.744263   C123.406601,276.975006 117.999802,277.145020 113.977646,273.443390   C110.211617,269.977478 109.911766,264.082886 113.303543,260.191681   C117.529488,255.343552 122.239861,254.799652 127.081345,258.600769   C130.925781,261.619110 131.368774,268.172058 127.747742,272.744263  z"/>
<path fill="#F9B101" opacity="1.000000" stroke="none" d=" M113.153580,248.642731   C109.598709,243.978973 110.549889,239.829514 113.658775,235.882874   C116.414589,232.384506 120.520638,232.205658 124.052864,233.280731   C127.641998,234.373154 130.098892,237.436874 130.275055,241.662262   C130.445679,245.754333 129.166336,249.013779 125.436333,251.175400   C120.720490,253.908356 116.819832,252.900650 113.153580,248.642731  z"/>
<path fill="#F9B101" opacity="1.000000" stroke="none" d=" M152.301025,225.204254   C147.343887,229.819336 142.225876,230.188324 138.012314,226.479248   C134.438644,223.333420 133.922043,217.229233 137.001801,213.544632   C141.479233,208.187851 145.916458,208.086029 150.248749,210.875122   C154.760330,213.779602 155.591599,219.816620 152.301025,225.204254  z"/>
<path fill="#F9B101" opacity="1.000000" stroke="none" d=" M111.942757,215.211945   C115.191818,209.849152 119.161850,208.030869 123.232101,209.695648   C128.419159,211.817261 131.353806,216.201736 130.317230,220.281143   C128.758820,226.414230 125.171822,229.343887 119.643341,228.998993   C113.600716,228.622025 109.866882,222.201584 111.942757,215.211945  z"/>
<path fill="#F9B101" opacity="1.000000" stroke="none" d=" M252.710022,163.783142   C257.101532,159.743347 263.131378,159.635147 266.749817,163.264877   C270.086334,166.611816 270.157135,173.836853 266.888153,177.384552   C263.999695,180.519272 257.054657,181.156006 253.879211,178.277420   C249.782684,174.563873 247.914505,169.043381 252.710022,163.783142  z"/>
<path fill="#F9B101" opacity="1.000000" stroke="none" d=" M125.521187,281.033325   C132.355560,287.901062 131.860962,295.113586 124.629570,298.736633   C120.166534,300.972717 115.068596,299.198975 112.150238,294.394623   C109.798378,290.522888 110.953247,284.886139 114.673805,282.086121   C117.936951,279.630341 121.448555,279.169525 125.521187,281.033325  z"/>
<path fill="#F9B101" opacity="1.000000" stroke="none" d=" M268.766418,190.444351   C270.765778,198.145264 266.870636,201.819321 261.379150,203.783112   C257.651611,205.116119 252.018524,201.409836 250.381012,196.867126   C248.825836,192.552826 251.884735,186.125580 256.392151,184.236740   C260.617310,182.466187 265.451904,184.788437 268.766418,190.444351  z"/>
<path fill="#F9B101" opacity="1.000000" stroke="none" d=" M241.113800,185.640717   C246.987732,191.834579 246.109543,199.065887 239.840347,202.749069   C235.768066,205.141541 229.871918,203.180725 227.294739,198.967224   C224.898041,195.048843 225.619919,189.476303 229.486115,186.246811   C232.974869,183.332581 236.853073,183.117233 241.113800,185.640717  z"/>
<path fill="#F9B101" opacity="1.000000" stroke="none" d=" M262.161560,113.630676   C267.130615,115.093765 268.922974,118.478233 269.410583,122.930206   C269.886871,127.279190 267.291870,130.124588 264.172455,132.088699   C260.479919,134.413696 256.451538,133.365799 253.336716,130.598328   C250.221848,127.830788 248.877747,124.175018 250.540909,119.977547   C252.320816,115.485336 256.599121,113.024559 262.161560,113.630676  z"/>
<path fill="#F9B101" opacity="1.000000" stroke="none" d=" M240.462341,131.816330   C233.900482,134.302887 228.209015,132.149979 226.290283,126.756798   C224.268829,121.074928 227.229965,115.101219 233.718613,113.979515   C236.553467,113.489456 240.566483,115.103836 242.832733,117.122742   C246.368225,120.272400 245.697372,124.800301 243.583527,128.813660   C242.993744,129.933395 241.763580,130.715820 240.462341,131.816330  z"/>
<path fill="#F9B101" opacity="1.000000" stroke="none" d=" M265.090637,138.587982   C271.790375,145.271408 270.397705,153.333145 262.394836,156.006302   C257.911926,157.503708 253.581253,155.638062 251.024796,151.108215   C248.895584,147.335419 249.967102,141.841461 253.525238,139.212036   C257.049164,136.607895 260.834259,135.805832 265.090637,138.587982  z"/>
<path fill="#F9B101" opacity="1.000000" stroke="none" d=" M230.846161,155.324615   C225.953552,152.495316 225.039368,148.214813 226.269012,143.745544   C227.302032,139.990952 230.107620,137.352341 234.407959,136.996948   C239.037048,136.614380 242.352982,138.459930 244.239120,142.731903   C245.986435,146.689438 245.490677,150.593674 242.610672,153.603027   C239.486267,156.867767 235.429871,157.678528 230.846161,155.324615  z"/>
<path fill="#F9B101" opacity="1.000000" stroke="none" d=" M274.938904,167.120865   C276.373230,161.987808 280.614288,160.285141 284.444611,160.402664   C289.272278,160.550781 292.749664,163.983429 293.558777,169.140991   C294.234436,173.447815 292.093414,176.576324 288.654114,178.808029   C284.881470,181.255981 280.944855,180.660904 277.833038,177.859879   C274.916138,175.234283 272.550903,171.896713 274.938904,167.120865  z"/>
<path fill="#F9B101" opacity="1.000000" stroke="none" d=" M276.716125,187.654205   C279.996643,184.024857 283.593994,182.835114 287.763519,184.961182   C291.500824,186.866852 294.368652,190.080612 293.729980,194.227570   C293.070923,198.506927 290.940399,202.580719 285.797424,203.660934   C281.291687,204.607315 278.022278,202.421814 275.787415,199.088760   C273.371704,195.486038 272.888855,191.463684 276.716125,187.654205  z"/>
<path fill="#F9B101" opacity="1.000000" stroke="none" d=" M177.980713,215.307800   C179.797409,220.745865 177.709198,225.565628 172.636169,228.104462   C168.410828,230.219101 162.884949,228.504883 160.467773,223.841965   C158.029297,219.137924 158.672363,215.226929 163.197266,211.316513   C167.034927,208.000000 171.839569,208.395538 175.756516,212.287781   C176.562393,213.088608 177.223557,214.035095 177.980713,215.307800  z"/>
<path fill="#F9B101" opacity="1.000000" stroke="none" d=" M154.724609,243.632263   C152.863968,249.157013 148.503204,253.623672 144.878738,252.743546   C141.090195,251.823578 137.017532,250.728149 135.810287,245.674164   C134.608139,240.641602 136.718750,235.154144 141.427109,233.218857   C145.581573,231.511230 151.796799,234.132217 153.773163,238.593628   C154.415955,240.044693 154.553513,241.719559 154.724609,243.632263  z"/>
<path fill="#F9B101" opacity="1.000000" stroke="none" d=" M177.350586,247.190277   C173.755310,252.638687 169.076294,253.883987 163.955719,250.985046   C159.580841,248.508270 158.225861,242.415237 160.930237,237.380142   C162.909622,233.694885 169.143616,231.623230 172.864166,233.414291   C178.136276,235.952286 180.016327,241.299469 177.350586,247.190277  z"/>
</svg>